<?xml version="1.0" encoding="utf-8"?>
<!-- Generator: Adobe Illustrator 18.1.0, SVG Export Plug-In . SVG Version: 6.00 Build 0)  -->
<svg version="1.1" id="Layer_1" xmlns="http://www.w3.org/2000/svg" xmlns:xlink="http://www.w3.org/1999/xlink" x="0px" y="0px"
	 width="740px" height="739px" viewBox="350 0 740 739" enable-background="new 350 0 740 739" xml:space="preserve">
<g id="Bg" display="none">
	<rect x="350.5" display="inline" stroke="#000000" stroke-miterlimit="10" width="739" height="739"/>
</g>
<g id="Quantification">
	<rect x="356.7" y="121" opacity="0.5" fill="#FFFFFF" enable-background="new    " width="83.9" height="618"/>
	<rect x="356.7" y="489.5" fill="#FFFFFF" width="83.9" height="249.5"/>
	<g>
		<rect x="516.9" y="121" opacity="0.5" fill="#FFFFFF" enable-background="new    " width="83.9" height="618"/>
		<rect x="516.9" y="383.2" fill="#FFFFFF" width="83.9" height="355.8"/>
	</g>
	<rect x="676.7" y="121" opacity="0.5" fill="#FFFFFF" enable-background="new    " width="83.9" height="618"/>
	<rect x="676.7" y="467.1" fill="#FFFFFF" width="83.9" height="271.9"/>
	<rect x="836.9" y="121" opacity="0.5" fill="#FFFFFF" enable-background="new    " width="83.9" height="618"/>
	<rect x="836.9" y="546.2" fill="#FFFFFF" width="83.9" height="192.8"/>
	<rect x="997" y="121" opacity="0.5" fill="#FFFFFF" enable-background="new    " width="83.9" height="618"/>
	<rect x="997" y="506.6" fill="#FFFFFF" width="83.9" height="232.4"/>
	
		<text transform="matrix(1 0 0 1 625.0942 68.2618)" display="none" fill="#FFFFFF" enable-background="new    " font-family="'Brown-Regular'" font-size="44.6837">Products</text>
	
		<text transform="matrix(1 0 0 1 350.4992 338.5346)" display="none" fill="#FFFFFF" enable-background="new    " font-family="'Brown-Regular'" font-size="33.5822">Brand 2</text>
	
		<text transform="matrix(1 0 0 1 350.4992 439.8987)" display="none" fill="#FFFFFF" enable-background="new    " font-family="'Brown-Regular'" font-size="33.5822">Brand 3</text>
	
		<text transform="matrix(1 0 0 1 350.4992 541.2729)" display="none" fill="#FFFFFF" enable-background="new    " font-family="'Brown-Regular'" font-size="33.5822">Brand 4</text>
</g>
</svg>
